# xmcd CD database file
# Copyright (C) 1993-1998 Ti Kan
#
# Track frame offsets:
#	183
#	18125
#	32328
#	49463
#	65543
#	82553
#	99428
#	115600
#	131788
#	145385
#	162368
#	177135
#	194753
#	212775
#
# Disc length: 3031 seconds
#
# Revision: 1
# Processed by: cddbd v1.4b41PL1 Copyright (c) Steve Scherf et al.
# Submitted via: NotifyCDPlayer(CDDB) 1.07
#
DISCID=bb0bd50e
DTITLE=Michelle Wright - Now and Then
DYEAR=1900
DGENRE=
TTITLE0=Take It Like A Man
TTITLE1=If I'm Ever Over You
TTITLE2=Now and Then
TTITLE3=One Time Around
TTITLE4=He Would Be Sixteen
TTITLE5=The Change
TTITLE6=Don't Start With Me
TTITLE7=Guitar Talk
TTITLE8=Fastest Healing Wounded Heart
TTITLE9=A Little More Comfortable
TTITLE10=All You Really Wanna Do
TTITLE11=New Kind Of Love
TTITLE12=Like A Hurricane
TTITLE13=As Far As Lonely Goes
EXTD=
EXTT0=
EXTT1=
EXTT2=
EXTT3=
EXTT4=
EXTT5=
EXTT6=
EXTT7=
EXTT8=
EXTT9=
EXTT10=
EXTT11=
EXTT12=
EXTT13=
PLAYORDER=
